<?xml version="1.0" encoding="utf-8"?>
<!-- Generator: Adobe Illustrator 27.0.1, SVG Export Plug-In . SVG Version: 6.00 Build 0)  -->
<svg version="1.1" id="svg2" xmlns="http://www.w3.org/2000/svg" xmlns:xlink="http://www.w3.org/1999/xlink" x="0px" y="0px"
	 viewBox="0 0 384 384" style="enable-background:new 0 0 384 384;" xml:space="preserve">
<style type="text/css">
	.st0{fill:#1E1E1E;}
	.st1{fill:#FFFFFF;}
</style>
<path id="rect4140" class="st0" d="M170.9,0L170,38.9v191l56,1.9l1.1-34.7l44.9,25.8L381.3,384h2.7V0H170.9z"/>
<g>
	<polygon class="st1" points="278.2,3.1 367.2,54.4 367.4,157.5 278.2,208.7 189,157.3 189,54.5 	"/>
</g>
<polygon class="st0" points="204.7,63.6 231.1,48.5 231.1,163 204.7,148.1 "/>
<polygon class="st0" points="257,33.6 257,90.2 326.8,49.5 278.2,21.6 "/>
<polygon class="st0" points="281.9,105.8 351.2,65.5 351.2,146 "/>
<polygon class="st0" points="256.9,121.7 256.9,177.5 278.2,190.2 326.6,162 "/>
</svg>
